HIERARCHY
ROOT Hips
{
  OFFSET 13.6774 106.653 -34.4427
  CHANNELS 6 Xposition Yposition Zposition Zrotation Xrotation Yrotation
  JOINT ToSpine
  {
    OFFSET -2.69724 7.43032 -0.144315
    CHANNELS 3 Zrotation Xrotation Yrotation
    JOINT Spine
    {
      OFFSET -0.0310711 10.7595 1.96963
      CHANNELS 3 Zrotation Xrotation Yrotation
      JOINT Spine1
      {
        OFFSET 19.9056 3.91189 0.764692
        CHANNELS 3 Zrotation Xrotation Yrotation
        JOINT Neck
        {
          OFFSET 25.9749 7.03908 -0.130764
          CHANNELS 3 Zrotation Xrotation Yrotation
          JOINT Head
          {
            OFFSET 9.52751 0.295786 -0.907742
            CHANNELS 3 Zrotation Xrotation Yrotation
            End Site
            {
              OFFSET 16.4037 0.713936 2.7358
            }
          }
        }
        JOINT LeftShoulder
        {
          OFFSET 17.7449 4.33886 11.7777
          CHANNELS 3 Zrotation Xrotation Yrotation
          JOINT LeftArm
          {
            OFFSET 0.911315 1.27913 9.80584
            CHANNELS 3 Zrotation Xrotation Yrotation
            JOINT LeftForeArm
            {
              OFFSET 28.6126 1.18197 -3.53199
              CHANNELS 3 Zrotation Xrotation Yrotation
              JOINT LeftHand
              {
                OFFSET 27.5088 0.0218783 0.327423
                CHANNELS 3 Zrotation Xrotation Yrotation
                End Site
                {
                  OFFSET 18.6038 -0.000155887 0.382096
                }
              }
            }
          }
        }
        JOINT RightShoulder
        {
          OFFSET 17.1009 2.89543 -12.2328
          CHANNELS 3 Zrotation Xrotation Yrotation
          JOINT RightArm
          {
            OFFSET 1.4228 0.178766 -10.211
            CHANNELS 3 Zrotation Xrotation Yrotation
            JOINT RightForeArm
            {
              OFFSET 28.733 1.87905 2.64907
              CHANNELS 3 Zrotation Xrotation Yrotation
              JOINT RightHand
              {
                OFFSET 27.4588 0.290562 -0.101845
                CHANNELS 3 Zrotation Xrotation Yrotation
                End Site
                {
                  OFFSET 17.8396 -0.255518 -0.000602873
                }
              }
            }
          }
        }
      }
    }
  }
  JOINT LeftUpLeg
  {
    OFFSET -5.61296 -2.22332 -10.2353
    CHANNELS 3 Zrotation Xrotation Yrotation
    JOINT LeftLeg
    {
      OFFSET 2.56703 -44.7417 -7.93097
      CHANNELS 3 Zrotation Xrotation Yrotation
      JOINT LeftFoot
      {
        OFFSET 3.16933 -46.5642 -3.96578
        CHANNELS 3 Zrotation Xrotation Yrotation
        JOINT LeftToeBase
        {
          OFFSET 0.346054 -6.02161 12.8035
          CHANNELS 3 Zrotation Xrotation Yrotation
          End Site
          {
            OFFSET 0.134235 -1.35082 5.13018
          }
        }
      }
    }
  }
  JOINT RightUpLeg
  {
    OFFSET -5.7928 -1.72406 10.6446
    CHANNELS 3 Zrotation Xrotation Yrotation
    JOINT RightLeg
    {
      OFFSET -2.57161 -44.7178 -7.85259
      CHANNELS 3 Zrotation Xrotation Yrotation
      JOINT RightFoot
      {
        OFFSET -3.10148 -46.5936 -4.03391
        CHANNELS 3 Zrotation Xrotation Yrotation
        JOINT RightToeBase
        {
          OFFSET -0.0828122 -6.13587 12.8035
          CHANNELS 3 Zrotation Xrotation Yrotation
          End Site
          {
            OFFSET -0.131328 -1.35082 5.13018
          }
        }
      }
    }
  }
}
MOTION
Frames: 7
Frame Time: 0.03333333333333333
0.0000 93.1000 0.0000 6.5748 -47.9372 -67.8688 -71.1121 -0.0566 88.3952 116.2534 58.9665 -31.8754 -6.3481 11.6741 4.3989 -161.6209 -0.0254 -177.3708 -147.6030 39.9156 -162.4188 -0.8752 -17.0197 -31.6189 -110.5705 17.3753 -54.6964 14.1389 0.0467 -85.2534 0.0772 0.1960 -0.2097 -2.2120 6.1880 43.3385 -69.9550 -37.6372 53.8560 4.4742 -2.8434 68.0858 -0.2826 -0.4229 -0.1171 -60.2601 -2.9137 103.5021 -3.9249 51.7811 -3.0836 -8.2299 5.6539 0.9411 1.6884 -6.5032 3.2149 1.0679 9.0368 67.8015 6.2318 61.2997 6.7898 -5.7318 -5.6472 0.1610 0.1281 -29.1114 -28.8137 
0.0000 93.1000 0.0000 10.9580 -49.7015 -65.0233 -71.1318 -0.1124 88.3847 121.8755 58.9776 -36.5959 -5.9738 13.0976 2.9800 -164.2852 2.1232 -176.4005 -147.6346 42.9983 -161.9934 -0.5643 -17.6237 -33.5372 -104.7684 23.2257 -55.5988 10.9681 2.1605 -77.5960 -0.0552 -0.2037 -0.1556 -2.0519 6.2831 43.3095 -70.7364 -36.4495 60.7646 7.7315 -2.5341 70.8964 0.0143 -0.8399 0.2083 -51.8872 1.2826 104.5497 -8.5910 70.8906 5.6609 -8.2474 4.4624 1.0586 0.6302 -4.3420 7.7299 -6.7937 7.9242 71.8996 5.6742 61.9390 3.1503 -6.3747 -12.3235 0.2322 1.7909 -17.2771 -23.2003 
0.0000 93.1000 0.0000 14.9891 -49.9857 -60.0033 -71.2034 -0.0533 88.3836 129.1306 58.4826 -39.7593 -4.9693 15.2099 0.6161 -164.9319 4.9037 -174.8740 -149.3187 46.0570 -161.2161 -0.8774 -18.7730 -35.9144 -95.7232 29.7421 -57.6138 9.0136 3.1998 -69.0334 0.1419 -0.0616 -0.0739 -2.2363 6.7561 42.2811 -73.5747 -35.9694 67.5394 10.1674 -2.7505 74.5912 0.1714 -0.8260 0.0593 -37.4146 6.3698 101.0293 -129.1545 83.3872 129.3795 -2.9680 1.9544 -0.2943 1.5530 -7.0691 8.5736 -14.6166 6.9817 72.2622 4.5998 62.1608 -0.8139 -7.2725 -20.9540 0.8405 2.1368 -12.6698 -15.3231 
0.0000 93.1000 0.0000 14.8300 -49.6229 -59.6074 -71.2059 -0.0744 88.3911 136.1443 60.0287 -43.6030 -6.7964 18.8657 -1.9062 -168.0181 7.5733 -176.3878 -148.7898 48.9013 -164.6184 -0.9085 -18.6298 -38.0558 -86.8229 36.7198 -58.8741 9.0842 3.4593 -63.3152 0.0426 -0.1511 0.0227 -2.4160 7.2379 41.0050 -74.8514 -37.4156 73.6996 14.6334 -2.7211 79.9312 0.1880 -1.0228 0.3672 -20.6162 11.2080 96.3866 -164.5802 69.9459 162.9545 -0.2144 0.7760 -0.8571 2.1678 -8.1518 7.3096 -21.6980 6.6259 73.5014 5.2841 61.4271 0.6013 -6.3305 -24.9281 1.0066 1.9736 -16.9244 -20.4228 
0.0000 93.1000 0.0000 12.9589 -48.2092 -62.7732 -71.1817 -0.0894 88.4107 136.2394 62.7389 -45.6923 -8.8714 22.1842 -1.1224 -169.4589 9.9510 -178.8412 -151.2209 50.8149 -164.9482 -0.6366 -17.2787 -37.6807 -81.4161 45.3292 -54.5331 5.4043 2.2754 -64.2696 -0.2798 -0.1955 -0.1528 -2.2387 7.7866 37.9813 -74.9794 -40.5509 80.5604 16.0302 -1.0192 86.6020 0.3279 -1.1603 0.2917 -2.4093 13.2923 93.3339 -166.7795 66.5345 163.7438 -1.5056 -0.2069 -0.6424 2.3986 -9.3271 9.4707 -27.9015 4.0778 77.5288 4.3729 58.1915 2.9280 -5.7146 -25.2292 1.0330 1.8990 -22.1158 -17.8259 
0.0000 93.1000 0.0000 12.9360 -47.9244 -65.3176 -71.1531 -0.0880 88.4211 134.4331 66.2313 -47.3397 -10.7558 24.5359 0.6406 -167.5840 12.7145 -179.7148 -152.0042 53.0223 -164.1550 -0.3666 -16.0320 -35.5365 -78.6261 52.5606 -47.5210 4.2049 1.1344 -67.1524 0.0827 -0.1842 -0.0979 -2.2003 7.5354 36.4250 -74.6819 -42.6535 84.7611 20.5896 1.6086 93.8083 0.1724 -1.2341 0.4183 7.7588 14.0395 93.3130 -160.8448 73.6175 156.2710 -2.2587 -0.6599 -0.5081 2.5607 -9.4237 8.8988 -37.6789 0.0764 81.2618 3.7248 50.4025 7.5732 -4.9661 -20.2081 0.8101 2.0749 -28.5158 -16.7168 
0.0000 93.1000 0.0000 14.9630 -47.6637 -64.5065 -71.1268 -0.1456 88.4289 135.2651 68.7631 -49.7064 -12.0479 26.1618 1.2825 -165.4518 14.8194 -180.0240 -154.1266 55.5212 -164.5761 0.2170 -14.8696 -33.4989 -76.6523 59.2748 -43.4879 3.0901 1.0060 -68.2131 -0.0082 -0.5189 0.1905 -1.9351 6.8578 35.3061 -75.5913 -43.4533 85.6592 21.6724 4.4166 100.3241 0.5911 -1.6000 0.6966 10.9303 14.1107 93.2228 -83.5308 84.9520 75.8651 -3.8335 -2.1319 0.0712 1.0885 -6.7132 9.7640 -51.4029 -2.3840 83.2777 2.5924 36.1752 12.1367 -3.2193 -3.0607 -0.5058 3.1818 -37.8184 -9.3790 
